<svg xmlns="http://www.w3.org/2000/svg" width="1041.4" height="230.0"><polygon points="20.0 40 20.0 20 624.8 20 624.8 40" fill="#4C72B7"/><rect x="431.59999999999997" y="10.0" width="1.2" height="30.0" fill="grey"/><circle stroke="grey" cx="432.2" cy="10.0" r="5.0" fill="grey"/><rect x="89.6" y="10.0" width="1.2" height="30.0" fill="purple"/><circle stroke="purple" cx="90.19999999999999" cy="10.0" r="5.0" fill="purple"/><rect x="123.2" y="10.0" width="1.2" height="30.0" fill="green"/><circle stroke="green" cx="123.8" cy="10.0" r="5.0" fill="green"/><rect x="170.0" y="10.0" width="1.2" height="30.0" fill="green"/><circle stroke="green" cx="170.6" cy="10.0" r="5.0" fill="green"/><rect x="98.0" y="10.0" width="1.2" height="30.0" fill="green"/><circle stroke="green" cx="98.6" cy="10.0" r="5.0" fill="green"/><rect x="563.6" y="10.0" width="1.2" height="30.0" fill="orange"/><circle stroke="orange" cx="564.2" cy="10.0" r="5.0" fill="orange"/><rect x="47.599999999999994" y="10.0" width="1.2" height="30.0" fill="black"/><circle stroke="black" cx="48.199999999999996" cy="10.0" r="5.0" fill="black"/><rect x="84.8" y="10.0" width="1.2" height="30.0" fill="black"/><circle stroke="black" cx="85.39999999999999" cy="10.0" r="5.0" fill="black"/><rect x="102.8" y="10.0" width="1.2" height="30.0" fill="black"/><circle stroke="black" cx="103.39999999999999" cy="10.0" r="5.0" fill="black"/><rect x="168.79999999999998" y="10.0" width="1.2" height="30.0" fill="black"/><circle stroke="black" cx="169.39999999999998" cy="10.0" r="5.0" fill="black"/><rect x="207.2" y="10.0" width="1.2" height="30.0" fill="black"/><circle stroke="black" cx="207.79999999999998" cy="10.0" r="5.0" fill="black"/><rect x="208.4" y="10.0" width="1.2" height="30.0" fill="black"/><circle stroke="black" cx="209.0" cy="10.0" r="5.0" fill="black"/><rect x="222.79999999999998" y="10.0" width="1.2" height="30.0" fill="black"/><circle stroke="black" cx="223.39999999999998" cy="10.0" r="5.0" fill="black"/><rect x="230.0" y="10.0" width="1.2" height="30.0" fill="black"/><circle stroke="black" cx="230.6" cy="10.0" r="5.0" fill="black"/><rect x="268.4" y="10.0" width="1.2" height="30.0" fill="black"/><circle stroke="black" cx="269.0" cy="10.0" r="5.0" fill="black"/><rect x="308.0" y="10.0" width="1.2" height="30.0" fill="black"/><circle stroke="black" cx="308.6" cy="10.0" r="5.0" fill="black"/><rect x="347.59999999999997" y="10.0" width="1.2" height="30.0" fill="black"/><circle stroke="black" cx="348.2" cy="10.0" r="5.0" fill="black"/><rect x="360.8" y="10.0" width="1.2" height="30.0" fill="black"/><circle stroke="black" cx="361.40000000000003" cy="10.0" r="5.0" fill="black"/><rect x="524.0" y="10.0" width="1.2" height="30.0" fill="black"/><circle stroke="black" cx="524.6" cy="10.0" r="5.0" fill="black"/><rect x="545.6" y="10.0" width="1.2" height="30.0" fill="black"/><circle stroke="black" cx="546.2" cy="10.0" r="5.0" fill="black"/><rect x="579.1999999999999" y="10.0" width="1.2" height="30.0" fill="black"/><circle stroke="black" cx="579.8" cy="10.0" r="5.0" fill="black"/><text class="exonnr" x="322.4" y="30.0">3</text><polygon points="629.8 40 629.8 20 993.3999999999999 20 993.3999999999999 40" fill="#4C72B7"/><rect x="640.5999999999999" y="10.0" width="1.2" height="30.0" fill="green"/><circle stroke="green" cx="641.1999999999999" cy="10.0" r="5.0" fill="green"/><rect x="664.5999999999999" y="10.0" width="1.2" height="30.0" fill="green"/><circle stroke="green" cx="665.1999999999999" cy="10.0" r="5.0" fill="green"/><rect x="956.1999999999999" y="10.0" width="1.2" height="30.0" fill="green"/><circle stroke="green" cx="956.8" cy="10.0" r="5.0" fill="green"/><rect x="697.0" y="10.0" width="1.2" height="30.0" fill="red"/><circle stroke="red" cx="697.6" cy="10.0" r="5.0" fill="red"/><rect x="675.4" y="10.0" width="1.2" height="30.0" fill="black"/><circle stroke="black" cx="676.0" cy="10.0" r="5.0" fill="black"/><rect x="730.5999999999999" y="10.0" width="1.2" height="30.0" fill="black"/><circle stroke="black" cx="731.1999999999999" cy="10.0" r="5.0" fill="black"/><rect x="753.4" y="10.0" width="1.2" height="30.0" fill="black"/><circle stroke="black" cx="754.0" cy="10.0" r="5.0" fill="black"/><rect x="757.0" y="10.0" width="1.2" height="30.0" fill="black"/><circle stroke="black" cx="757.6" cy="10.0" r="5.0" fill="black"/><rect x="785.8" y="10.0" width="1.2" height="30.0" fill="black"/><circle stroke="black" cx="786.4" cy="10.0" r="5.0" fill="black"/><rect x="791.8" y="10.0" width="1.2" height="30.0" fill="black"/><circle stroke="black" cx="792.4" cy="10.0" r="5.0" fill="black"/><rect x="802.5999999999999" y="10.0" width="1.2" height="30.0" fill="black"/><circle stroke="black" cx="803.1999999999999" cy="10.0" r="5.0" fill="black"/><rect x="821.8" y="10.0" width="1.2" height="30.0" fill="black"/><circle stroke="black" cx="822.4" cy="10.0" r="5.0" fill="black"/><rect x="839.8" y="10.0" width="1.2" height="30.0" fill="black"/><circle stroke="black" cx="840.4" cy="10.0" r="5.0" fill="black"/><rect x="845.8" y="10.0" width="1.2" height="30.0" fill="black"/><circle stroke="black" cx="846.4" cy="10.0" r="5.0" fill="black"/><rect x="856.5999999999999" y="10.0" width="1.2" height="30.0" fill="black"/><circle stroke="black" cx="857.1999999999999" cy="10.0" r="5.0" fill="black"/><rect x="896.1999999999999" y="10.0" width="1.2" height="30.0" fill="black"/><circle stroke="black" cx="896.8" cy="10.0" r="5.0" fill="black"/><rect x="937.0" y="10.0" width="1.2" height="30.0" fill="black"/><circle stroke="black" cx="937.6" cy="10.0" r="5.0" fill="black"/><text class="exonnr" x="811.5999999999999" y="30.0">4</text><polygon points="20.0 80 20.0 60 142.2 60 147.2 70.0 142.2 80" fill="#4C72B7"/><rect x="90.8" y="50.0" width="1.2" height="30.0" fill="green"/><circle stroke="green" cx="91.39999999999999" cy="50.0" r="5.0" fill="green"/><rect x="119.6" y="50.0" width="1.2" height="30.0" fill="green"/><circle stroke="green" cx="120.19999999999999" cy="50.0" r="5.0" fill="green"/><rect x="118.39999999999999" y="50.0" width="1.2" height="30.0" fill="red"/><circle stroke="red" cx="118.99999999999999" cy="50.0" r="5.0" fill="red"/><rect x="47.599999999999994" y="50.0" width="1.2" height="30.0" fill="red"/><circle stroke="red" cx="48.199999999999996" cy="50.0" r="5.0" fill="red"/><rect x="143.6" y="50.0" width="1.2" height="30.0" fill="red"/><circle stroke="red" cx="144.2" cy="50.0" r="5.0" fill="red"/><rect x="59.6" y="50.0" width="1.2" height="30.0" fill="black"/><circle stroke="black" cx="60.2" cy="50.0" r="5.0" fill="black"/><rect x="129.2" y="50.0" width="1.2" height="30.0" fill="black"/><circle stroke="black" cx="129.79999999999998" cy="50.0" r="5.0" fill="black"/><text class="exonnr" x="83.6" y="70.0">5</text><polygon points="147.2 80 152.2 70.0 147.2 60 153.0 60 158.0 70.0 153.0 80" fill="#4C72B7"/><text class="exonnr" x="152.6" y="70.0">6</text><polygon points="158.0 80 163.0 70.0 158.0 60 271.8 60 276.8 70.0 271.8 80" fill="#4C72B7"/><rect x="236.0" y="50.0" width="1.2" height="30.0" fill="grey"/><circle stroke="grey" cx="236.6" cy="50.0" r="5.0" fill="grey"/><rect x="255.2" y="50.0" width="1.2" height="30.0" fill="green"/><circle stroke="green" cx="255.79999999999998" cy="50.0" r="5.0" fill="green"/><rect x="212.0" y="50.0" width="1.2" height="30.0" fill="red"/><circle stroke="red" cx="212.6" cy="50.0" r="5.0" fill="red"/><rect x="234.8" y="50.0" width="1.2" height="30.0" fill="red"/><circle stroke="red" cx="235.4" cy="50.0" r="5.0" fill="red"/><rect x="159.2" y="50.0" width="1.2" height="30.0" fill="black"/><circle stroke="black" cx="159.79999999999998" cy="50.0" r="5.0" fill="black"/><rect x="168.8" y="50.0" width="1.2" height="30.0" fill="black"/><circle stroke="black" cx="169.4" cy="50.0" r="5.0" fill="black"/><rect x="185.6" y="50.0" width="1.2" height="30.0" fill="black"/><circle stroke="black" cx="186.2" cy="50.0" r="5.0" fill="black"/><rect x="197.6" y="50.0" width="1.2" height="30.0" fill="black"/><circle stroke="black" cx="198.2" cy="50.0" r="5.0" fill="black"/><rect x="260.0" y="50.0" width="1.2" height="30.0" fill="black"/><circle stroke="black" cx="260.6" cy="50.0" r="5.0" fill="black"/><rect x="269.6" y="50.0" width="1.2" height="30.0" fill="black"/><circle stroke="black" cx="270.20000000000005" cy="50.0" r="5.0" fill="black"/><text class="exonnr" x="217.4" y="70.0">7</text><polygon points="276.8 80 281.8 70.0 276.8 60 412.20000000000005 60 417.20000000000005 70.0 412.20000000000005 80" fill="#4C72B7"/><rect x="335.6" y="50.0" width="1.2" height="30.0" fill="green"/><circle stroke="green" cx="336.20000000000005" cy="50.0" r="5.0" fill="green"/><rect x="382.4" y="50.0" width="1.2" height="30.0" fill="green"/><circle stroke="green" cx="383.0" cy="50.0" r="5.0" fill="green"/><rect x="383.6" y="50.0" width="1.2" height="30.0" fill="orange"/><circle stroke="orange" cx="384.20000000000005" cy="50.0" r="5.0" fill="orange"/><rect x="384.8" y="50.0" width="1.2" height="30.0" fill="red"/><circle stroke="red" cx="385.40000000000003" cy="50.0" r="5.0" fill="red"/><rect x="344.0" y="50.0" width="1.2" height="30.0" fill="black"/><circle stroke="black" cx="344.6" cy="50.0" r="5.0" fill="black"/><text class="exonnr" x="347.0" y="70.0">8</text><polygon points="417.20000000000005 80 422.20000000000005 70.0 417.20000000000005 60 873.2 60 873.2 80" fill="#4C72B7"/><rect x="854.0" y="50.0" width="1.2" height="30.0" fill="purple"/><circle stroke="purple" cx="854.6" cy="50.0" r="5.0" fill="purple"/><rect x="600.8000000000001" y="50.0" width="1.2" height="30.0" fill="green"/><circle stroke="green" cx="601.4000000000001" cy="50.0" r="5.0" fill="green"/><rect x="818.0" y="50.0" width="1.2" height="30.0" fill="green"/><circle stroke="green" cx="818.6" cy="50.0" r="5.0" fill="green"/><rect x="456.80000000000007" y="50.0" width="1.2" height="30.0" fill="green"/><circle stroke="green" cx="457.4000000000001" cy="50.0" r="5.0" fill="green"/><rect x="477.20000000000005" y="50.0" width="1.2" height="30.0" fill="green"/><circle stroke="green" cx="477.80000000000007" cy="50.0" r="5.0" fill="green"/><rect x="688.4000000000001" y="50.0" width="1.2" height="30.0" fill="green"/><circle stroke="green" cx="689.0000000000001" cy="50.0" r="5.0" fill="green"/><rect x="501.20000000000005" y="50.0" width="1.2" height="30.0" fill="green"/><circle stroke="green" cx="501.80000000000007" cy="50.0" r="5.0" fill="green"/><rect x="533.6" y="50.0" width="1.2" height="30.0" fill="green"/><circle stroke="green" cx="534.2" cy="50.0" r="5.0" fill="green"/><rect x="677.6" y="50.0" width="1.2" height="30.0" fill="green"/><circle stroke="green" cx="678.2" cy="50.0" r="5.0" fill="green"/><rect x="642.8000000000001" y="50.0" width="1.2" height="30.0" fill="red"/><circle stroke="red" cx="643.4000000000001" cy="50.0" r="5.0" fill="red"/><rect x="686.0" y="50.0" width="1.2" height="30.0" fill="red"/><circle stroke="red" cx="686.6" cy="50.0" r="5.0" fill="red"/><rect x="720.8" y="50.0" width="1.2" height="30.0" fill="red"/><circle stroke="red" cx="721.4" cy="50.0" r="5.0" fill="red"/><rect x="419.6" y="50.0" width="1.2" height="30.0" fill="black"/><circle stroke="black" cx="420.20000000000005" cy="50.0" r="5.0" fill="black"/><rect x="420.80000000000007" y="50.0" width="1.2" height="30.0" fill="black"/><circle stroke="black" cx="421.4000000000001" cy="50.0" r="5.0" fill="black"/><rect x="431.6" y="50.0" width="1.2" height="30.0" fill="black"/><circle stroke="black" cx="432.20000000000005" cy="50.0" r="5.0" fill="black"/><rect x="449.6" y="50.0" width="1.2" height="30.0" fill="black"/><circle stroke="black" cx="450.20000000000005" cy="50.0" r="5.0" fill="black"/><rect x="478.40000000000003" y="50.0" width="1.2" height="30.0" fill="black"/><circle stroke="black" cx="479.00000000000006" cy="50.0" r="5.0" fill="black"/><rect x="549.2" y="50.0" width="1.2" height="30.0" fill="black"/><circle stroke="black" cx="549.8000000000001" cy="50.0" r="5.0" fill="black"/><rect x="575.6" y="50.0" width="1.2" height="30.0" fill="black"/><circle stroke="black" cx="576.2" cy="50.0" r="5.0" fill="black"/><rect x="581.6" y="50.0" width="1.2" height="30.0" fill="black"/><circle stroke="black" cx="582.2" cy="50.0" r="5.0" fill="black"/><rect x="597.2" y="50.0" width="1.2" height="30.0" fill="black"/><circle stroke="black" cx="597.8000000000001" cy="50.0" r="5.0" fill="black"/><rect x="603.2" y="50.0" width="1.2" height="30.0" fill="black"/><circle stroke="black" cx="603.8000000000001" cy="50.0" r="5.0" fill="black"/><rect x="647.6" y="50.0" width="1.2" height="30.0" fill="black"/><circle stroke="black" cx="648.2" cy="50.0" r="5.0" fill="black"/><rect x="678.8" y="50.0" width="1.2" height="30.0" fill="black"/><circle stroke="black" cx="679.4" cy="50.0" r="5.0" fill="black"/><rect x="732.8" y="50.0" width="1.2" height="30.0" fill="black"/><circle stroke="black" cx="733.4" cy="50.0" r="5.0" fill="black"/><rect x="770.0" y="50.0" width="1.2" height="30.0" fill="black"/><circle stroke="black" cx="770.6" cy="50.0" r="5.0" fill="black"/><text class="exonnr" x="645.2" y="70.0">9</text><polygon points="878.2 80 878.2 60 1041.4 60 1041.4 80" fill="#4C72B7"/><rect x="1010.2" y="50.0" width="1.2" height="30.0" fill="green"/><circle stroke="green" cx="1010.8000000000001" cy="50.0" r="5.0" fill="green"/><rect x="899.8000000000001" y="50.0" width="1.2" height="30.0" fill="red"/><circle stroke="red" cx="900.4000000000001" cy="50.0" r="5.0" fill="red"/><rect x="974.2" y="50.0" width="1.2" height="30.0" fill="red"/><circle stroke="red" cx="974.8000000000001" cy="50.0" r="5.0" fill="red"/><text class="exonnr" x="959.8000000000001" y="70.0">10</text><polygon points="20.0 120 20.0 100 51.0 100 56.0 110.0 51.0 120" fill="#4C72B7"/><rect x="23.6" y="90.0" width="1.2" height="30.0" fill="red"/><circle stroke="red" cx="24.200000000000003" cy="90.0" r="5.0" fill="red"/><rect x="51.2" y="90.0" width="1.2" height="30.0" fill="red"/><circle stroke="red" cx="51.800000000000004" cy="90.0" r="5.0" fill="red"/><rect x="54.8" y="90.0" width="1.2" height="30.0" fill="black"/><circle stroke="black" cx="55.4" cy="90.0" r="5.0" fill="black"/><text class="exonnr" x="38.0" y="110.0">10</text><polygon points="56.0 120 61.0 110.0 56.0 100 221.4 100 226.4 100 221.4 110.0 226.4 120 221.4 120" fill="#4C72B7"/><rect x="86.0" y="90.0" width="1.2" height="30.0" fill="green"/><circle stroke="green" cx="86.6" cy="90.0" r="5.0" fill="green"/><rect x="159.2" y="90.0" width="1.2" height="30.0" fill="red"/><circle stroke="red" cx="159.79999999999998" cy="90.0" r="5.0" fill="red"/><rect x="149.6" y="90.0" width="1.2" height="30.0" fill="black"/><circle stroke="black" cx="150.2" cy="90.0" r="5.0" fill="black"/><rect x="167.6" y="90.0" width="1.2" height="30.0" fill="black"/><circle stroke="black" cx="168.2" cy="90.0" r="5.0" fill="black"/><text class="exonnr" x="141.2" y="110.0">11</text><polygon points="231.4 120 226.4 110.0 231.4 100 369.0 100 374.0 100 369.0 110.0 374.0 120 369.0 120" fill="#4C72B7"/><rect x="338.0" y="90.0" width="1.2" height="30.0" fill="green"/><circle stroke="green" cx="338.6" cy="90.0" r="5.0" fill="green"/><rect x="257.6" y="90.0" width="1.2" height="30.0" fill="black"/><circle stroke="black" cx="258.20000000000005" cy="90.0" r="5.0" fill="black"/><rect x="353.6" y="90.0" width="1.2" height="30.0" fill="black"/><circle stroke="black" cx="354.20000000000005" cy="90.0" r="5.0" fill="black"/><text class="exonnr" x="300.2" y="110.0">12</text><polygon points="379.0 120 374.0 110.0 379.0 100 479.4 100 484.4 110.0 479.4 120" fill="#4C72B7"/><rect x="392.0" y="90.0" width="1.2" height="30.0" fill="green"/><circle stroke="green" cx="392.6" cy="90.0" r="5.0" fill="green"/><rect x="482.0" y="90.0" width="1.2" height="30.0" fill="orange"/><circle stroke="orange" cx="482.6" cy="90.0" r="5.0" fill="orange"/><rect x="416.0" y="90.0" width="1.2" height="30.0" fill="black"/><circle stroke="black" cx="416.6" cy="90.0" r="5.0" fill="black"/><rect x="480.8" y="90.0" width="1.2" height="30.0" fill="black"/><circle stroke="black" cx="481.40000000000003" cy="90.0" r="5.0" fill="black"/><rect x="483.2" y="90.0" width="1.2" height="30.0" fill="black"/><circle stroke="black" cx="483.8" cy="90.0" r="5.0" fill="black"/><text class="exonnr" x="429.2" y="110.0">13</text><polygon points="484.4 120 489.4 110.0 484.4 100 559.8 100 564.8 100 559.8 110.0 564.8 120 559.8 120" fill="#4C72B7"/><rect x="514.4" y="90.0" width="1.2" height="30.0" fill="green"/><circle stroke="green" cx="515.0" cy="90.0" r="5.0" fill="green"/><rect x="563.6" y="90.0" width="1.2" height="30.0" fill="red"/><circle stroke="red" cx="564.2" cy="90.0" r="5.0" fill="red"/><text class="exonnr" x="524.6" y="110.0">14</text><polygon points="569.8 120 564.8 110.0 569.8 100 724.4 100 724.4 120" fill="#4C72B7"/><rect x="611.5999999999999" y="90.0" width="1.2" height="30.0" fill="green"/><circle stroke="green" cx="612.1999999999999" cy="90.0" r="5.0" fill="green"/><rect x="599.5999999999999" y="90.0" width="1.2" height="30.0" fill="red"/><circle stroke="red" cx="600.1999999999999" cy="90.0" r="5.0" fill="red"/><rect x="620.0" y="90.0" width="1.2" height="30.0" fill="red"/><circle stroke="red" cx="620.6" cy="90.0" r="5.0" fill="red"/><rect x="640.4" y="90.0" width="1.2" height="30.0" fill="red"/><circle stroke="red" cx="641.0" cy="90.0" r="5.0" fill="red"/><rect x="722.0" y="90.0" width="1.2" height="30.0" fill="red"/><circle stroke="red" cx="722.6" cy="90.0" r="5.0" fill="red"/><rect x="608.0" y="90.0" width="1.2" height="30.0" fill="black"/><circle stroke="black" cx="608.6" cy="90.0" r="5.0" fill="black"/><rect x="640.4" y="90.0" width="1.2" height="30.0" fill="black"/><circle stroke="black" cx="641.0" cy="90.0" r="5.0" fill="black"/><text class="exonnr" x="644.5999999999999" y="110.0">15</text><polygon points="729.4 120 729.4 100 855.1999999999999 100 860.1999999999999 110.0 855.1999999999999 120" fill="#4C72B7"/><rect x="821.8" y="90.0" width="1.2" height="30.0" fill="green"/><circle stroke="green" cx="822.4" cy="90.0" r="5.0" fill="green"/><rect x="847.0" y="90.0" width="1.2" height="30.0" fill="green"/><circle stroke="green" cx="847.6" cy="90.0" r="5.0" fill="green"/><rect x="777.4" y="90.0" width="1.2" height="30.0" fill="orange"/><circle stroke="orange" cx="778.0" cy="90.0" r="5.0" fill="orange"/><rect x="754.6" y="90.0" width="1.2" height="30.0" fill="red"/><circle stroke="red" cx="755.2" cy="90.0" r="5.0" fill="red"/><rect x="788.1999999999999" y="90.0" width="1.2" height="30.0" fill="red"/><circle stroke="red" cx="788.8" cy="90.0" r="5.0" fill="red"/><rect x="797.8" y="90.0" width="1.2" height="30.0" fill="red"/><circle stroke="red" cx="798.4" cy="90.0" r="5.0" fill="red"/><rect x="741.4" y="90.0" width="1.2" height="30.0" fill="red"/><circle stroke="red" cx="742.0" cy="90.0" r="5.0" fill="red"/><rect x="765.4" y="90.0" width="1.2" height="30.0" fill="red"/><circle stroke="red" cx="766.0" cy="90.0" r="5.0" fill="red"/><rect x="849.4" y="90.0" width="1.2" height="30.0" fill="black"/><circle stroke="black" cx="850.0" cy="90.0" r="5.0" fill="black"/><text class="exonnr" x="794.8" y="110.0">16</text><polygon points="860.1999999999999 120 865.1999999999999 110.0 860.1999999999999 100 1002.9999999999999 100 1002.9999999999999 120" fill="#4C72B7"/><rect x="939.4" y="90.0" width="1.2" height="30.0" fill="purple"/><circle stroke="purple" cx="940.0" cy="90.0" r="5.0" fill="purple"/><rect x="933.4" y="90.0" width="1.2" height="30.0" fill="green"/><circle stroke="green" cx="934.0" cy="90.0" r="5.0" fill="green"/><rect x="900.9999999999999" y="90.0" width="1.2" height="30.0" fill="green"/><circle stroke="green" cx="901.5999999999999" cy="90.0" r="5.0" fill="green"/><rect x="940.5999999999999" y="90.0" width="1.2" height="30.0" fill="green"/><circle stroke="green" cx="941.1999999999999" cy="90.0" r="5.0" fill="green"/><rect x="906.9999999999999" y="90.0" width="1.2" height="30.0" fill="red"/><circle stroke="red" cx="907.5999999999999" cy="90.0" r="5.0" fill="red"/><rect x="926.1999999999999" y="90.0" width="1.2" height="30.0" fill="red"/><circle stroke="red" cx="926.8" cy="90.0" r="5.0" fill="red"/><rect x="906.9999999999999" y="90.0" width="1.2" height="30.0" fill="black"/><circle stroke="black" cx="907.5999999999999" cy="90.0" r="5.0" fill="black"/><rect x="921.4" y="90.0" width="1.2" height="30.0" fill="black"/><circle stroke="black" cx="922.0" cy="90.0" r="5.0" fill="black"/><rect x="959.8" y="90.0" width="1.2" height="30.0" fill="black"/><circle stroke="black" cx="960.4" cy="90.0" r="5.0" fill="black"/><rect x="993.3999999999999" y="90.0" width="1.2" height="30.0" fill="black"/><circle stroke="black" cx="993.9999999999999" cy="90.0" r="5.0" fill="black"/><rect x="996.9999999999999" y="90.0" width="1.2" height="30.0" fill="black"/><circle stroke="black" cx="997.5999999999999" cy="90.0" r="5.0" fill="black"/><text class="exonnr" x="931.5999999999999" y="110.0">17</text><polygon points="20.0 160 20.0 140 275.4 140 280.4 150.0 275.4 160" fill="#4C72B7"/><rect x="26.0" y="130.0" width="1.2" height="30.0" fill="green"/><circle stroke="green" cx="26.6" cy="130.0" r="5.0" fill="green"/><rect x="27.2" y="130.0" width="1.2" height="30.0" fill="green"/><circle stroke="green" cx="27.8" cy="130.0" r="5.0" fill="green"/><rect x="119.6" y="130.0" width="1.2" height="30.0" fill="green"/><circle stroke="green" cx="120.19999999999999" cy="130.0" r="5.0" fill="green"/><rect x="231.2" y="130.0" width="1.2" height="30.0" fill="green"/><circle stroke="green" cx="231.79999999999998" cy="130.0" r="5.0" fill="green"/><rect x="195.2" y="130.0" width="1.2" height="30.0" fill="orange"/><circle stroke="orange" cx="195.79999999999998" cy="130.0" r="5.0" fill="orange"/><rect x="74.0" y="130.0" width="1.2" height="30.0" fill="red"/><circle stroke="red" cx="74.6" cy="130.0" r="5.0" fill="red"/><rect x="138.8" y="130.0" width="1.2" height="30.0" fill="red"/><circle stroke="red" cx="139.4" cy="130.0" r="5.0" fill="red"/><rect x="75.19999999999999" y="130.0" width="1.2" height="30.0" fill="black"/><circle stroke="black" cx="75.79999999999998" cy="130.0" r="5.0" fill="black"/><rect x="149.6" y="130.0" width="1.2" height="30.0" fill="black"/><circle stroke="black" cx="150.2" cy="130.0" r="5.0" fill="black"/><rect x="162.79999999999998" y="130.0" width="1.2" height="30.0" fill="black"/><circle stroke="black" cx="163.39999999999998" cy="130.0" r="5.0" fill="black"/><rect x="228.79999999999998" y="130.0" width="1.2" height="30.0" fill="black"/><circle stroke="black" cx="229.39999999999998" cy="130.0" r="5.0" fill="black"/><rect x="231.2" y="130.0" width="1.2" height="30.0" fill="black"/><circle stroke="black" cx="231.79999999999998" cy="130.0" r="5.0" fill="black"/><rect x="236.0" y="130.0" width="1.2" height="30.0" fill="black"/><circle stroke="black" cx="236.6" cy="130.0" r="5.0" fill="black"/><text class="exonnr" x="150.2" y="150.0">18</text><polygon points="280.4 160 285.4 150.0 280.4 140 502.4 140 502.4 160" fill="#4C72B7"/><rect x="432.79999999999995" y="130.0" width="1.2" height="30.0" fill="green"/><circle stroke="green" cx="433.4" cy="130.0" r="5.0" fill="green"/><rect x="323.59999999999997" y="130.0" width="1.2" height="30.0" fill="orange"/><circle stroke="orange" cx="324.2" cy="130.0" r="5.0" fill="orange"/><rect x="423.19999999999993" y="130.0" width="1.2" height="30.0" fill="red"/><circle stroke="red" cx="423.79999999999995" cy="130.0" r="5.0" fill="red"/><rect x="468.79999999999995" y="130.0" width="1.2" height="30.0" fill="black"/><circle stroke="black" cx="469.4" cy="130.0" r="5.0" fill="black"/><rect x="480.79999999999995" y="130.0" width="1.2" height="30.0" fill="black"/><circle stroke="black" cx="481.4" cy="130.0" r="5.0" fill="black"/><text class="exonnr" x="391.4" y="150.0">19</text><rect x="20" y="180" width="20" height="20" fill="grey"/><text class="legend" x="50.0" y="190.0">not provided</text><rect x="210.0" y="180" width="20" height="20" fill="purple"/><text class="legend" x="240.0" y="190.0">Conflicting classifications of pathogenicity</text><rect x="720.0" y="180" width="20" height="20" fill="green"/><text class="legend" x="750.0" y="190.0">Benign / Likely benign</text><rect x="20" y="210.0" width="20" height="20" fill="green"/><text class="legend" x="50.0" y="220.0">Benign</text><rect x="150.0" y="210.0" width="20" height="20" fill="green"/><text class="legend" x="180.0" y="220.0">Likely benign</text><rect x="350.0" y="210.0" width="20" height="20" fill="orange"/><text class="legend" x="380.0" y="220.0">Likely pathogenic</text><rect x="590.0" y="210.0" width="20" height="20" fill="black"/><text class="legend" x="620.0" y="220.0">Uncertain significance</text><rect x="880.0" y="210.0" width="20" height="20" fill="red"/><text class="legend" x="910.0" y="220.0">Pathogenic</text><style >
.legend { font: 16.0px sans-serif; fill: black; dominant-baseline: central; }
</style><style >
.exonnr { text-anchor: middle; dominant-baseline: central; font: 10.0px sans-serif; fill: white;}
</style></svg>
