<svg xmlns="http://www.w3.org/2000/svg" width="690.0" height="115.0"><rect x="20" y="25.0" width="36.0" height="10.0" fill="#4C72B7"/><polygon points="55.0 40 55.0 20 102.0 20 107.0 30.0 102.0 40" fill="#4C72B7"/><text class="exonnr" x="63.5" y="30.0">1</text><polygon points="107.0 40 112.0 30.0 107.0 20 219.0 20 224.0 30.0 219.0 40" fill="#4C72B7"/><text class="exonnr" x="165.5" y="30.0">2</text><polygon points="224.0 40 229.0 30.0 224.0 20 364.0 20 369.0 20 364.0 30.0 369.0 40 364.0 40" fill="#4C72B7"/><rect x="328.0" y="10.0" width="1.0" height="30.0" fill="#BA1C30"/><circle stroke="#BA1C30" cx="328.5" cy="10.0" r="5.0" fill="#BA1C30"/><rect x="354.0" y="10.0" width="1.0" height="30.0" fill="#DB6917"/><circle stroke="#DB6917" cx="354.5" cy="10.0" r="5.0" fill="#DB6917"/><text class="exonnr" x="296.5" y="30.0">3</text><rect x="534.0" y="25.0" width="156.0" height="10.0" fill="#4C72B7"/><polygon points="374.0 40 369.0 30.0 374.0 20 535.0 20 535.0 40" fill="#4C72B7"/><text class="exonnr" x="529.5" y="30.0">4</text><rect x="20" y="65.0" width="669.0" height="10.0" fill="#4C72B7"/><text class="exonnr" x="354.5" y="70.0">4</text><rect x="20" y="95.0" width="20" height="20" fill="#BA1C30"/><text class="legend" x="50.0" y="105.0">c.274G>T</text><rect x="170.0" y="95.0" width="20" height="20" fill="#DB6917"/><text class="legend" x="200.0" y="105.0">c.300del</text><style >
.legend { font: 16.0px sans-serif; fill: black; dominant-baseline: central; }
</style><style >
.exonnr { text-anchor: middle; dominant-baseline: central; font: 10.0px sans-serif; fill: white;}
</style></svg>
